<?xml version="1.0" encoding="UTF-8" standalone="no"?>
<svg
   xmlns:osb="http://www.openswatchbook.org/uri/2009/osb"
   xmlns:dc="http://purl.org/dc/elements/1.1/"
   xmlns:cc="http://creativecommons.org/ns#"
   xmlns:rdf="http://www.w3.org/1999/02/22-rdf-syntax-ns#"
   xmlns:svg="http://www.w3.org/2000/svg"
   xmlns="http://www.w3.org/2000/svg"
   xmlns:xlink="http://www.w3.org/1999/xlink"
   xmlns:sodipodi="http://sodipodi.sourceforge.net/DTD/sodipodi-0.dtd"
   xmlns:inkscape="http://www.inkscape.org/namespaces/inkscape"
   inkscape:export-ydpi="96"
   inkscape:export-xdpi="96"
   inkscape:export-filename="C:\Users\luisg\Desktop\Computer Science\Projects\LibGDX\JRAC\android\assets\Draws\Map\treeAndGrass.png"
   sodipodi:docname="trees-and-grass.svg"
   inkscape:version="1.0 (4035a4fb49, 2020-05-01)"
   id="svg8"
   version="1.1"
   viewBox="0 0 84.666669 84.666669"
   height="320"
   width="320">
  <defs
     id="defs2">
    <linearGradient
       inkscape:collect="always"
       id="linearGradient2710">
      <stop
         style="stop-color:#62c584;stop-opacity:1;"
         offset="0"
         id="stop2714" />
      <stop
         style="stop-color:#72b589;stop-opacity:1"
         offset="1"
         id="stop2716" />
    </linearGradient>
    <linearGradient
       osb:paint="gradient"
       id="linearGradient2464">
      <stop
         id="stop2460"
         offset="0"
         style="stop-color:#ca8d8d;stop-opacity:1;" />
      <stop
         id="stop2462"
         offset="1"
         style="stop-color:#179e3e;stop-opacity:0.8252427" />
    </linearGradient>
    <linearGradient
       y2="66.637108"
       x2="126.9798"
       y1="37.753792"
       x1="127.89757"
       gradientTransform="matrix(7.4504016,0,0,5.2102065,30.371729,-476.63146)"
       gradientUnits="userSpaceOnUse"
       id="linearGradient2536"
       xlink:href="#linearGradient2464"
       inkscape:collect="always" />
    <linearGradient
       gradientTransform="matrix(0.18750001,0,0,0.125,62.470542,-88.205228)"
       gradientUnits="userSpaceOnUse"
       y2="65.162827"
       x2="128.09944"
       y1="47.637886"
       x1="126.86739"
       id="linearGradient2712"
       xlink:href="#linearGradient2710"
       inkscape:collect="always" />
  </defs>
  <sodipodi:namedview
     inkscape:snap-bbox="false"
     showguides="false"
     inkscape:document-rotation="0"
     inkscape:snap-global="true"
     fit-margin-bottom="0"
     fit-margin-right="0"
     fit-margin-left="0"
     fit-margin-top="0"
     units="px"
     inkscape:window-maximized="1"
     inkscape:window-y="-9"
     inkscape:window-x="-9"
     inkscape:window-height="1001"
     inkscape:window-width="1920"
     inkscape:snap-to-guides="true"
     inkscape:snap-grids="true"
     inkscape:snap-nodes="false"
     showgrid="true"
     inkscape:current-layer="g2491"
     inkscape:document-units="mm"
     inkscape:cy="115.34409"
     inkscape:cx="93.569033"
     inkscape:zoom="1.4142136"
     inkscape:pageshadow="2"
     inkscape:pageopacity="0.0"
     borderopacity="1.0"
     bordercolor="#666666"
     pagecolor="#ffffff"
     id="base">
    <inkscape:grid
       visible="false"
       originy="-450.85103"
       originx="-41.271083"
       id="grid863"
       type="xygrid" />
    <inkscape:grid
       id="grid942"
       type="xygrid"
       spacingy="8.4666669"
       spacingx="8.4666669" />
  </sodipodi:namedview>
  <metadata
     id="metadata5">
    <rdf:RDF>
      <cc:Work
         rdf:about="">
        <dc:format>image/svg+xml</dc:format>
        <dc:type
           rdf:resource="http://purl.org/dc/dcmitype/StillImage" />
        <dc:title></dc:title>
      </cc:Work>
    </rdf:RDF>
  </metadata>
  <g
     transform="translate(-10.342529,-24.0754)"
     style="display:inline"
     id="layer1"
     inkscape:groupmode="layer"
     inkscape:label="Layer 1">
    <g
       style="stroke-width:0.37499994"
       transform="matrix(2.6666667,0,0,2.6666667,-36.245708,-240.87572)"
       id="g881">
      <rect
         style="fill:#6ad696;fill-opacity:1;stroke:none;stroke-width:0;stroke-linecap:square;stroke-linejoin:round;stroke-miterlimit:4;stroke-dasharray:none;stroke-opacity:1"
         id="rect815"
         width="3.175"
         height="3.175"
         x="20.644718"
         y="99.359085" />
      <path
         inkscape:connector-curvature="0"
         id="path829"
         d="m 23.461999,100.95081 c -0.04688,-0.38069 -0.06027,-0.47394 -0.06027,-0.47394 l -0.05358,0.42731 -0.103809,-0.50498 -0.06363,0.82355 -0.0971,-0.8391 -0.03683,0.24085 c 0,0 -0.103809,-0.23308 -0.110503,-0.20202 -0.0067,0.0311 -0.07031,0.89354 -0.07031,0.89354 l -0.184161,-0.8236 -0.0201,0.22531 -0.123901,-0.20977 -0.07366,0.91684 -0.05691,-0.83139 -0.05023,0.76924 -0.08035,-1.14993 -0.08035,0.49722 -0.103809,-0.45059 c 0,0 -0.06026,0.85462 -0.06696,0.88569 -0.0067,0.0311 -0.160723,-0.83909 -0.160723,-0.83909 l -0.02344,0.48169 -0.190859,-0.59045 -0.02344,0.6837 -0.194206,-0.48947 -0.01,0.8158 -0.184162,-0.68372 0.0268,0.57493 0.0033,0.37298 -0.01,0.48171"
         style="fill:#4aaf67;fill-opacity:1;stroke:none;stroke-width:0.09921873px;stroke-linecap:butt;stroke-linejoin:miter;stroke-opacity:0.65098039" />
      <path
         style="fill:#6ad696;fill-opacity:1;stroke:none;stroke-width:0.09921873px;stroke-linecap:butt;stroke-linejoin:miter;stroke-opacity:0.65098039"
         d="m 23.461999,101.04969 c -0.04688,-0.38068 -0.06027,-0.47393 -0.06027,-0.47393 l -0.05358,0.42731 -0.103809,-0.50499 -0.06363,0.82356 -0.0971,-0.83912 -0.03683,0.24086 c 0,0 -0.103809,-0.23307 -0.110503,-0.20201 -0.0067,0.0311 -0.07031,0.89354 -0.07031,0.89354 l -0.184161,-0.8236 -0.0201,0.22531 -0.123901,-0.20978 -0.07366,0.91684 -0.05691,-0.83139 -0.05023,0.76923 -0.08035,-1.14991 -0.08035,0.49722 -0.103809,-0.45061 c 0,0 -0.06026,0.85465 -0.06696,0.88572 -0.0067,0.0311 -0.160723,-0.83911 -0.160723,-0.83911 l -0.02344,0.4817 -0.190859,-0.59046 -0.02344,0.68371 -0.194206,-0.48947 -0.01,0.81579 -0.184162,-0.68372 0.0268,0.57496 0.0033,0.37295 -0.01,0.48171"
         id="path837"
         inkscape:connector-curvature="0" />
    </g>
    <g
       style="stroke-width:0.37499997"
       transform="matrix(2.6666667,0,0,2.6666667,11.183174,-223.39329)"
       id="g876">
      <g
         style="stroke-width:0.37499997"
         transform="translate(-18.451621,-6.4545593)"
         id="g2724">
        <rect
           style="fill:#6ad696;fill-opacity:1;stroke:none;stroke-width:0;stroke-linecap:square;stroke-linejoin:round;stroke-miterlimit:4;stroke-dasharray:none;stroke-opacity:1"
           id="rect849"
           width="3.175"
           height="3.175"
           x="24.486124"
           y="99.256233" />
        <path
           style="fill:#4aaf67;fill-opacity:1;stroke:none;stroke-width:0.09921873px;stroke-linecap:butt;stroke-linejoin:miter;stroke-opacity:0.65098039"
           d="m 24.826884,100.23153 c 0.03585,-0.18498 0.0461,-0.2303 0.0461,-0.2303 l 0.04097,0.20764 0.07938,-0.245396 0.04866,0.400186 0.07426,-0.407747 0.02816,0.116947 c 0,0 0.07938,-0.113247 0.08449,-0.09813 0.0052,0.01448 0.05378,0.43418 0.05378,0.43418 l 0.140832,-0.4002 0.01537,0.10939 0.09474,-0.10183 0.05633,0.44548 0.04353,-0.40396 0.03841,0.37377 0.06145,-0.558756 0.06147,0.241616 0.07938,-0.218982 c 0,0 0.0461,0.415312 0.0512,0.430412 0.0052,0.0145 0.122904,-0.407746 0.122904,-0.407746 l 0.01793,0.234076 0.145954,-0.286937 0.01793,0.332257 0.148516,-0.237876 0.0076,0.396426 0.140832,-0.33223 -0.02048,0.27938 -0.0026,0.18119 0.0076,0.23408"
           id="path855"
           inkscape:connector-curvature="0" />
        <path
           inkscape:connector-curvature="0"
           id="path857"
           d="m 24.826883,100.30542 c 0.03585,-0.18498 0.0461,-0.2303 0.0461,-0.2303 l 0.04097,0.20764 0.07938,-0.2454 0.04866,0.40018 0.07426,-0.40774 0.02816,0.11695 c 0,0 0.07938,-0.11325 0.08449,-0.0981 0.0052,0.0145 0.05377,0.43416 0.05377,0.43416 l 0.140833,-0.40018 0.01537,0.10939 0.09474,-0.10183 0.05634,0.44548 0.04353,-0.40396 0.03841,0.37375 0.06145,-0.558735 0.06147,0.241615 0.07938,-0.218981 c 0,0 0.0461,0.415301 0.0512,0.430411 0.0052,0.0145 0.122903,-0.407744 0.122903,-0.407744 l 0.01793,0.234074 0.145955,-0.286935 0.01793,0.332245 0.148515,-0.23786 0.0076,0.39641 0.140833,-0.33222 -0.02048,0.27938 -0.0026,0.18118 0.0076,0.23408"
           style="fill:#6ad696;fill-opacity:1;stroke:none;stroke-width:0.09921873px;stroke-linecap:butt;stroke-linejoin:miter;stroke-opacity:0.65098039" />
        <path
           inkscape:connector-curvature="0"
           id="path859"
           d="m 27.450382,101.72689 c -0.03339,-0.16165 -0.04293,-0.20126 -0.04293,-0.20126 l -0.03815,0.18145 -0.07392,-0.21444 -0.04531,0.3497 -0.06915,-0.35631 -0.02622,0.1022 c 0,0 -0.07392,-0.099 -0.07868,-0.0857 -0.0048,0.0126 -0.05008,0.37941 -0.05008,0.37941 l -0.131146,-0.34972 -0.01431,0.0956 -0.08823,-0.089 -0.05246,0.3893 -0.04053,-0.35302 -0.03577,0.32662 -0.05723,-0.48827 -0.05724,0.21114 -0.07392,-0.19136 c 0,0 -0.04293,0.36292 -0.04768,0.37612 -0.0048,0.0127 -0.11445,-0.35631 -0.11445,-0.35631 l -0.01669,0.20454 -0.135917,-0.25074 -0.01669,0.29034 -0.138301,-0.20786 -0.0071,0.34641 -0.131147,-0.29032 0.01907,0.24414 0.0024,0.15835 -0.0071,0.20456"
           style="fill:#4aaf67;fill-opacity:1;stroke:none;stroke-width:0.09921873px;stroke-linecap:butt;stroke-linejoin:miter;stroke-opacity:0.65098039" />
        <path
           style="fill:#6ad696;fill-opacity:1;stroke:none;stroke-width:0.09921873px;stroke-linecap:butt;stroke-linejoin:miter;stroke-opacity:0.65098039"
           d="m 27.450383,101.79145 c -0.03338,-0.16165 -0.04293,-0.20125 -0.04293,-0.20125 l -0.03815,0.18145 -0.07392,-0.21444 -0.04531,0.3497 -0.06915,-0.35631 -0.02622,0.1022 c 0,0 -0.07392,-0.099 -0.07868,-0.0858 -0.0048,0.0127 -0.05008,0.37941 -0.05008,0.37941 l -0.131147,-0.34972 -0.01431,0.0956 -0.08823,-0.089 -0.05246,0.3893 -0.04053,-0.35302 -0.03577,0.32662 -0.05722,-0.48827 -0.05724,0.21113 -0.07392,-0.19135 c 0,0 -0.04293,0.36291 -0.04768,0.37611 -0.0048,0.0127 -0.114451,-0.3563 -0.114451,-0.3563 l -0.01669,0.20454 -0.135916,-0.25074 -0.01669,0.29034 -0.138301,-0.20786 -0.0071,0.34641 -0.131147,-0.29032 0.01908,0.24414 0.0024,0.15835 -0.0071,0.20455"
           id="path861"
           inkscape:connector-curvature="0" />
      </g>
    </g>
    <rect
       style="fill:#6ad696;fill-opacity:1;stroke:none;stroke-width:0;stroke-linecap:square;stroke-linejoin:round;stroke-miterlimit:4;stroke-dasharray:none;stroke-opacity:1"
       id="rect865"
       width="8.4666662"
       height="8.4666662"
       x="10.350037"
       y="24.081932" />
    <g
       inkscape:export-ydpi="96"
       inkscape:export-xdpi="96"
       style="stroke-width:0.9538343"
       transform="matrix(0.71584508,0,0,1.5354478,-40.260686,-38.066038)"
       id="g2491">
      <g
         style="stroke-width:0.943237"
         transform="matrix(1,0,0,1.0225964,10.414577,3.4334717)"
         id="g2557">
        <path
           sodipodi:nodetypes="ccccccccccccccccccccccccccccccccccccccccccccccccccccccccccccccccccccccccccccccccccccccccccccccccccccccccccccccccsccccccccc"
           inkscape:connector-curvature="0"
           id="path928-6"
           d="m 135.73351,38.734654 2.43501,0.42589 2.19774,1.68939 2.48281,0.74109 1.73767,0.49987 1.2216,0.5507 0.8109,1.25805 -0.18383,1.61564 0.70158,0.58466 0.74836,0.60804 0.37417,1.21607 0.0234,0.6782 -0.25724,-0.63143 0.28063,1.59026 0.3274,1.21607 -0.23386,0.98222 -0.14031,0.46772 1.02898,0.56127 0.0935,0.74835 -0.0468,0.65481 0.51449,0.70158 -0.56127,0.37418 0.28064,0.98222 0.51449,0.70158 -0.28063,0.65481 -1.96443,-0.0468 -0.88867,0.65481 1.30962,1.02899 0.30187,0.53371 -0.82682,1.05833 0.42995,0.82682 -0.19844,1.058329 -1.05833,0.16537 -0.89297,-0.264578 -0.59531,0.727599 0.13229,0.727601 -0.0661,0.79375 -1.12448,0.198438 -1.15755,0.0331 -0.52916,0.36381 -1.12448,0.0661 -0.4961,0.0661 -0.16536,1.05833 -0.76068,0.396881 -1.62057,0.330729 h -3.07579 l -2.57969,-0.0992 -1.28985,-0.0331 -0.82682,-0.165359 -0.85989,-0.363802 -1.25678,-0.0331 -0.0992,-0.926039 -0.56224,0.978889 -1.71979,-1.938001 -1.32291,-0.0662 c 0,0 -1.05834,0 -1.25677,0.0662 -0.19844,0.0661 -0.89297,0.23151 -0.89297,0.23151 l -0.46302,0.859891 v 0.264591 l -2.28204,-0.826831 -0.69453,-0.62838 -1.52135,-0.132289 c 0,0 -0.92604,0.39687 -1.09141,0.463018 -0.16536,0.0661 -1.9513,0.82682 -1.9513,0.82682 0,0 -0.85989,0.628391 -1.0914,0.79375 -0.23152,0.16537 -1.78594,0.132292 -1.95131,0.0331 -0.16536,-0.0992 -0.85989,-0.926039 -0.85989,-0.926039 0,0 -0.79375,0 -1.15755,0.0331 -0.36381,0.0331 -1.55443,-0.0662 -1.55443,-0.0662 0,0 -0.52917,-0.859901 -0.66146,-0.892971 -0.13229,-0.0331 -0.79375,-0.859888 -0.79375,-0.859888 l -1.05833,-0.231519 -0.23151,-1.124471 c 0,0 0.23151,-0.264589 0.26458,-0.396879 0.0331,-0.13229 -0.0331,-0.79375 -0.0331,-0.79375 l -1.15756,-0.23151 0.82683,-1.09141 0.52916,-0.26458 0.1323,-1.32292 0.39687,-0.19843 0.16537,-0.89297 -0.36381,-0.33073 -1.3229,0.0992 -0.94289,-0.73697 0.21048,-0.72497 0.0935,-0.4911 -1.07576,-0.0234 -0.35079,-1.0056 0.0702,-0.98222 0.51449,-0.8419 -0.25724,-1.56687 1.19269,-1.0056 1.30962,-0.70158 0.1637,-0.93544 1.70719,-0.79513 0.25724,-0.46772 -0.2466,-0.30485 -0.7276,-0.76068 0.85989,-0.39687 0.42995,-0.33073 -0.0661,-1.48828 1.12448,-0.49609 0.76068,-0.56224 0.56224,-2.18282 1.65365,-0.26458 0.92604,-0.52917 1.85208,-0.19843 1.38906,-0.8599 1.5875,-0.69453 2.21589,0.0992 1.19062,-0.46302 0.89297,0.19843 c 0,0 0.62839,0.26459 0.82682,0.26459 0.19844,0 1.15756,-0.89297 1.15756,-0.89297 l 0.79375,-0.26458 c 0,0 0.7276,-0.19844 0.85989,-0.23151 0.13229,-0.0331 2.11667,-0.0331 2.11667,-0.0331 l 1.38906,-0.29765 0.76068,0.0331 0.82682,0.69453 3.93988,0.27998 0.92187,1.5225"
           style="display:inline;fill:url(#linearGradient2712);fill-opacity:1;fill-rule:evenodd;stroke:none;stroke-width:0.249565px;stroke-linecap:butt;stroke-linejoin:miter;stroke-opacity:1" />
        <path
           inkscape:connector-curvature="0"
           id="path932"
           d="m 107.83023,47.004279 1.32292,0.0661 1.19062,0.52916 1.5875,-1.25677 2.64583,-0.52916 2.11667,0.46302 0.52917,0.99218 2.24896,-0.0661 1.25677,-0.13229 1.65364,0.59531 1.71979,0.46302 0.26459,1.19062 -2.38125,-0.13229 -2.05052,1.19063 -1.45521,0.85989 -1.45521,0.66146 -1.52135,-0.26458 -0.92605,-0.26458 -0.39687,0.99218 -1.38906,-0.99218 -0.79375,-0.0661 -0.19844,0.7276 -0.33073,0.46302 -1.25677,-0.85989 c 0,0 -1.19062,0.19844 -1.65365,0.39687 -0.46302,0.19844 -1.05833,0.66146 -1.05833,0.66146 v -0.92604 l -1.19062,0.33073 -0.52917,0.59531 -0.79375,-1.05833 -0.33073,-0.92604 -1.05833,-0.13229"
           style="fill:#7ad695;fill-opacity:0.94902;stroke:none;stroke-width:0.249565px;stroke-linecap:butt;stroke-linejoin:miter;stroke-opacity:1" />
        <path
           inkscape:connector-curvature="0"
           id="path934"
           d="m 135.74377,47.268859 1.85208,-0.26458 h 1.38907 l 0.85989,0.52917 0.59532,-0.72761 1.12447,0.72761 1.25678,0.13229 0.92604,0.85989 3.10885,0.59532 0.19844,0.92604 0.0661,0.7276 -0.0661,1.32292 0.33073,0.79375 -1.71979,0.26458 -1.52136,-0.52916 0.13229,1.25677 0.46302,1.12448 0.66146,0.46302 -0.52916,1.45521 -0.39688,1.38906 -1.85208,0.33073 c 0,0 -0.59531,0.59531 -0.79375,0.92604 -0.19844,0.33073 -0.39688,1.12448 -0.39688,1.12448 l -0.7276,0.46302 -1.05833,-0.59531 -1.12448,-0.1323 -0.39688,0.26459 -1.19062,-0.0661 -0.99219,-1.12448 -1.45521,-1.12448 -1.32292,-0.0661 -1.12448,0.99219 -1.4552,0.92604 -1.52136,0.0661 -1.05833,-1.12448 h -1.98438 l -1.85208,-0.52916 -1.38906,-0.79375 -1.38906,0.7276 -0.79375,0.66146 -3.04271,-0.26458 -1.12448,-0.39688 -0.72761,0.66146 -1.65364,-0.19844 -1.12448,0.33073 -2.4474,0.26458 -2.24895,-0.13229 -1.05834,-1.19062 0.0661,-1.12448 0.92604,-0.72761 0.92604,-0.19843 c 0,0 0.99219,-0.72761 1.32292,-0.79375 0.33073,-0.0662 2.57969,-1.12448 2.57969,-1.12448 l 1.78593,0.33073 0.72761,-0.33073 0.33073,-0.72761 1.5875,0.19844 0.92604,-0.46302 1.12448,-1.12448 0.13229,-0.7276 1.78594,-0.19844 1.52135,-0.79375 1.65365,0.66146 0.39687,-1.19063 1.85208,-0.46302 1.25677,-1.25677 1.98438,-0.79375 0.52917,0.13229 0.46302,-0.59531 1.85208,-0.0662 1.52135,-0.59531 0.92605,0.13229 z"
           style="fill:#79da95;fill-opacity:0.960784;stroke:none;stroke-width:0.249565px;stroke-linecap:butt;stroke-linejoin:miter;stroke-opacity:1" />
        <path
           inkscape:connector-curvature="0"
           id="path936"
           d="m 108.09481,65.591259 1.45521,-0.66146 1.05834,-0.59531 0.99218,0.66146 1.12448,0.59531 1.45521,-1.71979 h 0.92604 l 0.79375,0.59531 1.5875,0.13229 1.12448,-1.5875 1.91823,0.13229 1.25677,0.66146 2.11667,-0.79375 1.85208,0.46302 2.05052,-0.79375 1.85208,0.8599 1.85209,0.59531 1.65364,-0.7276 1.05834,-0.39688 1.05833,0.79375 0.92604,0.46302 1.25677,-0.46302 0.52917,-0.59531 1.45521,0.66146 0.92604,0.59531 0.99219,-0.66146 1.5875,1.12448 0.0331,0.46302 -1.19062,0.16537 -0.59532,0.0661 -0.23151,0.95912 -0.39687,0.42994 -2.18282,0.4961 -6.91223,-0.23151 -1.65365,-0.56224 -1.19063,-0.13229 -0.16536,-0.72761 -1.71979,-0.82682 -0.99219,-0.13229 -1.5875,-0.0992 -1.02526,0.16536 -0.3638,0.29766 -0.29766,0.76068 -0.95911,-0.13229 -1.38907,-0.4961 -0.92604,-0.62838 -1.35599,-0.0992 -3.20807,1.38906 -0.85989,0.66146 -1.88516,0.0661 -1.05833,-0.89296 z"
           style="fill:none;stroke:none;stroke-width:0.249565px;stroke-linecap:butt;stroke-linejoin:miter;stroke-opacity:1" />
        <path
           inkscape:connector-curvature="0"
           id="path938"
           d="m 120.01662,84.618822 3.41437,-0.32741 3.27405,0.28064 3.41437,0.18708 0.8419,-0.18708 -0.98222,-1.21608 -1.44993,-3.60146 -0.28064,-3.13373 0.0935,-3.13374 0.14031,-2.10474 0.37418,-2.1983 0.32741,-1.12253 1.07576,-1.54348 1.54348,-1.63702 2.61924,-1.96444 0.56126,-0.46772 -0.56126,-0.42095 -2.57247,1.63703 -2.5257,1.82411 -0.88867,0.42095 -0.8419,-0.0468 v -1.07576 l 0.74836,-1.02899 0.65481,-1.02898 0.23386,-0.32741 -1.12253,-0.46772 -0.65481,1.1693 -0.42095,1.21608 -0.88867,0.3274 -0.74836,-0.18708 -0.42095,-0.98222 -0.18709,-1.1693 -0.88867,-0.32741 -0.37418,0.56127 0.0935,1.26284 0.18709,1.44994 -0.0468,1.96443 -0.3274,0.5145 -0.74835,-0.98222 -0.42095,-1.30962 -0.42095,-1.73057 -0.23386,-1.12253 -1.44994,-0.56127 0.28063,0.98222 0.46772,0.93544 0.0936,0.70158 -0.8419,-0.88867 -1.02899,-1.1693 -0.3274,-0.18709 -0.37418,0.8419 0.98221,1.54348 1.16931,1.91766 0.56126,1.82411 0.42095,2.5257 0.18709,2.99342 -0.0468,2.66601 0.0468,2.29184 -0.18709,2.15152 -0.70158,1.6838 -0.60804,1.07576 -0.42095,0.51449"
           style="fill:#a3744a;fill-opacity:0.960784;stroke:none;stroke-width:0.249565px;stroke-linecap:butt;stroke-linejoin:miter;stroke-opacity:1" />
        <path
           sodipodi:nodetypes="ccccc"
           inkscape:connector-curvature="0"
           id="path940"
           d="m 120.90291,63.403232 0.88056,0.01236 0.42168,1.831412 -2.40192,0.177748 -0.98284,-1.55054"
           style="fill:#b68253;fill-opacity:1;stroke:none;stroke-width:0.249565px;stroke-linecap:butt;stroke-linejoin:miter;stroke-opacity:1" />
        <path
           inkscape:connector-curvature="0"
           id="path942"
           d="m 123.58181,63.171722 1.15756,-0.26458 0.49609,1.38906 -1.45521,0.19844 z"
           style="fill:#b68253;fill-opacity:1;stroke:none;stroke-width:0.249565px;stroke-linecap:butt;stroke-linejoin:miter;stroke-opacity:1" />
        <path
           inkscape:connector-curvature="0"
           id="path944"
           d="m 127.58364,62.774852 1.02526,0.52916 -0.89297,1.32292 -0.59531,-0.26458 z"
           style="fill:#b68253;fill-opacity:1;stroke:none;stroke-width:0.249565px;stroke-linecap:butt;stroke-linejoin:miter;stroke-opacity:1" />
        <path
           inkscape:connector-curvature="0"
           id="path946"
           d="m 131.75082,63.800112 0.76068,0.56224 -1.09141,0.82682 -0.62838,0.8599 -1.45521,-0.52917 z"
           style="fill:#b68253;fill-opacity:1;stroke:none;stroke-width:0.249565px;stroke-linecap:butt;stroke-linejoin:miter;stroke-opacity:1" />
        <path
           sodipodi:nodetypes="ccccccc"
           inkscape:connector-curvature="0"
           id="path948"
           d="m 120.10881,65.959707 2.28037,-0.109105 0.40857,1.066186 0.36249,0.484055 -2.24782,0.356296 -0.35621,-1.103341 z"
           style="fill:#b68253;fill-opacity:1;stroke:none;stroke-width:0.249565px;stroke-linecap:butt;stroke-linejoin:miter;stroke-opacity:1" />
        <path
           inkscape:connector-curvature="0"
           id="path950"
           d="m 123.91254,66.247502 1.75287,0.8599 1.15755,0.3638 2.38125,0.13229 -0.42995,1.5875 -2.41432,-0.16536 -2.05052,-0.59531 -0.79375,-0.8599 0.33073,-0.42995 z"
           style="fill:#b78353;fill-opacity:0.960784;stroke:none;stroke-width:0.249565px;stroke-linecap:butt;stroke-linejoin:miter;stroke-opacity:1" />
        <path
           inkscape:connector-curvature="0"
           id="path952"
           d="m 121.46515,69.918602 7.11067,0.62838 -0.13229,1.65365 -3.30729,-0.0331 -2.41432,-0.33073 -1.09141,-0.26459 z"
           style="fill:#b68253;fill-opacity:1;stroke:none;stroke-width:0.249565px;stroke-linecap:butt;stroke-linejoin:miter;stroke-opacity:1" />
        <path
           inkscape:connector-curvature="0"
           id="path954"
           d="m 121.79588,73.887352 3.5388,0.0661 2.97656,-0.0331 -0.0331,1.62057 h -6.61459 z"
           style="fill:#b68253;fill-opacity:1;stroke:none;stroke-width:0.249565px;stroke-linecap:butt;stroke-linejoin:miter;stroke-opacity:1" />
        <path
           inkscape:connector-curvature="0"
           id="path956"
           d="m 121.72973,76.665472 1.71979,0.29766 2.11667,0.39687 2.61276,0.0992 0.23151,0.0992 0.23151,1.55443 -2.61276,0.0661 -2.34818,-0.26458 -1.91823,-0.39687 z"
           style="fill:#b68253;fill-opacity:1;stroke:none;stroke-width:0.249565px;stroke-linecap:butt;stroke-linejoin:miter;stroke-opacity:1" />
        <path
           inkscape:connector-curvature="0"
           id="path958"
           d="m 121.69666,84.371462 0.52916,-0.99219 0.79375,-2.01744 0.16537,1.55442 -0.4961,1.28985"
           style="fill:#a3744a;fill-opacity:0.960784;stroke:none;stroke-width:0.249565px;stroke-linecap:butt;stroke-linejoin:miter;stroke-opacity:1" />
        <path
           sodipodi:nodetypes="cccc"
           inkscape:connector-curvature="0"
           id="path960"
           d="m 123.87947,84.073812 0.39687,-1.28985 0.28597,1.43148 z"
           style="fill:#a3744a;fill-opacity:0.960784;stroke:none;stroke-width:0.249565px;stroke-linecap:butt;stroke-linejoin:miter;stroke-opacity:1" />
        <path
           inkscape:connector-curvature="0"
           id="path962"
           d="m 126.09536,84.305322 0.26458,-2.01745 0.82682,2.24896"
           style="fill:#a3744a;fill-opacity:0.960784;stroke:none;stroke-width:0.249565px;stroke-linecap:butt;stroke-linejoin:miter;stroke-opacity:1" />
        <path
           sodipodi:nodetypes="ccccc"
           inkscape:connector-curvature="0"
           id="path964"
           d="m 127.84822,84.371462 -0.23151,-4.03489 0.56224,2.44739 0.71717,1.44511 0.10965,0.10932"
           style="fill:#a3744a;fill-opacity:0.960784;stroke:none;stroke-width:0.249565px;stroke-linecap:butt;stroke-linejoin:miter;stroke-opacity:1" />
        <path
           inkscape:connector-curvature="0"
           id="path930-6"
           d="m 110.37891,41.952569 h 1.44993 l 1.07576,-0.28063 0.5145,0.88867 1.73057,-0.42095 1.54348,-0.42095 0.46772,1.1693 0.14032,0.46773 -1.16931,0.56126 -1.54348,0.74836 c 0,0 -1.40316,-0.0935 -1.40316,0.0935 0,0.18709 0.51449,0.70158 0.51449,0.70158 l 1.87089,0.0935 c 0,0 1.02899,0 1.21607,0 0.18709,0 0.79513,0.56126 0.79513,0.56126 l 1.35639,0.0468 0.56127,0.18709 0.88867,-0.23386 1.16931,0.5145 0.56126,0.37417 1.44994,-0.79512 0.60804,-0.46772 1.02898,0.70158 0.93545,-0.88867 1.02898,0.3274 0.88868,0.0936 0.18708,-0.8419 1.12254,0.3274 0.51449,-0.46772 1.12253,0.42095 c 0,0 2.57247,0.37418 2.85311,0.37418 0.28063,0 1.49671,0 1.54349,0.18709 0.0468,0.18708 1.07576,0.18708 1.07576,0.18708 l 1.68379,0.28064 0.42095,-1.44994 0.8419,-0.23386 0.14032,-0.65481 1.40317,0.51449 0.6548,-0.23386 1.21608,0.23386 h 1.02899 l -0.23386,-0.88867 -0.18709,-0.60803 0.65481,-0.18709 -0.28063,-0.37418 -2.29184,-0.46772 -1.91766,-0.5145 -0.93544,-1.02898 -0.98222,-0.70159 -1.54348,-0.0468 -0.8419,-0.46772 -0.70159,-1.35639 -3.74177,-0.14032 -1.03987,-0.87727 -1.7198,0.0661 -2.24895,0.46302 h -1.91823 l -0.66146,0.79375 -0.52917,0.39688 -1.65364,-0.39688 -1.32292,0.33073 h -1.71979 l -1.05834,0.0662 -1.78593,1.12448 -0.66146,0.59531 -1.85208,0.13229 -1.05834,0.33073 -1.25677,0.33073 z"
           style="display:inline;fill:#76d992;fill-opacity:0.992157;stroke:none;stroke-width:0.249565px;stroke-linecap:butt;stroke-linejoin:miter;stroke-opacity:1" />
      </g>
    </g>
  </g>
</svg>
